<?xml version="1.0" encoding="UTF-8"?>
<svg version="1.1" xmlns="http://www.w3.org/2000/svg" width="595" height="419">
<path d="M0 0 C7.35485156 6.77025293 13.11643008 14.19295503 17.89013672 22.95800781 C18.22053955 23.56354492 18.55094238 24.16908203 18.89135742 24.79296875 C22.58194955 31.92482785 23.75039473 39.29689102 24.64013672 47.20800781 C24.73488281 47.97435547 24.82962891 48.74070312 24.92724609 49.53027344 C25.14870504 51.43887762 25.30656646 53.35465879 25.45263672 55.27050781 C23.45905816 57.26408638 19.54002984 56.549761 16.80419922 56.62207031 C15.65170181 56.65679947 15.65170181 56.65679947 14.47592163 56.69223022 C12.84680957 56.73994048 11.21762317 56.78516578 9.58837891 56.828125 C7.09492832 56.89504374 4.60198368 56.97286234 2.10888672 57.05175781 C0.52817621 57.09668974 -1.05255266 57.14098157 -2.63330078 57.18457031 C-3.38026215 57.20846832 -4.12722351 57.23236633 -4.89682007 57.25698853 C-8.08236213 57.33405401 -10.49753976 57.28711565 -13.54736328 56.27050781 C-13.63373047 55.50867188 -13.72009766 54.74683594 -13.80908203 53.96191406 C-14.79251257 46.73505293 -16.40389675 41.2825965 -20.54736328 35.27050781 C-20.95599609 34.64402344 -21.36462891 34.01753906 -21.78564453 33.37207031 C-26.50483157 26.9962955 -34.76620166 22.64906007 -42.54736328 21.27050781 C-54.2752151 20.3763021 -63.40157256 22.38081312 -72.54736328 29.91894531 C-80.07951387 36.70341919 -82.3391265 44.41703236 -83.54736328 54.27050781 C-83.64000628 56.80150233 -83.6852088 59.33450889 -83.69262695 61.8671875 C-83.69598557 62.59181183 -83.69934418 63.31643616 -83.70280457 64.0630188 C-83.71224038 66.43949131 -83.71425407 68.81589278 -83.71533203 71.19238281 C-83.71855018 72.85996529 -83.72191466 74.52754749 -83.72541809 76.19512939 C-83.73139128 79.68510593 -83.7332599 83.17505778 -83.73266602 86.66503906 C-83.7325646 91.11083858 -83.74620355 95.55647765 -83.76343822 100.00223923 C-83.77462346 103.4460318 -83.77658322 106.88978641 -83.77605629 110.33359528 C-83.7772271 111.97125042 -83.78159767 113.60890685 -83.78938866 115.24654388 C-83.85619545 130.74147998 -83.26645463 143.12061606 -72.17626953 154.92285156 C-64.16668456 162.07554186 -54.88305932 163.18526454 -44.55517578 162.70019531 C-39.39328549 162.27145079 -35.08084916 160.74331829 -30.54736328 158.27050781 C-29.21705078 157.68269531 -29.21705078 157.68269531 -27.85986328 157.08300781 C-20.59175942 151.38638587 -15.74646005 142.95904761 -14.12158203 133.89550781 C-13.89768263 132.02410983 -13.71800002 130.14751193 -13.54736328 128.27050781 C-12.54736328 127.27050781 -12.54736328 127.27050781 -9.03735352 127.15698242 C-7.47687906 127.15714155 -5.91639935 127.16283639 -4.35595703 127.17285156 C-3.53611832 127.17426651 -2.7162796 127.17568146 -1.87159729 127.17713928 C0.75735054 127.18275492 3.38621445 127.19531002 6.01513672 127.20800781 C7.79313028 127.2130208 9.57112518 127.21758406 11.34912109 127.22167969 C15.71699217 127.23272943 20.0848002 127.2500045 24.45263672 127.27050781 C24.47308922 129.15327406 24.48752457 131.03610614 24.49951172 132.91894531 C24.50821289 133.96743652 24.51691406 135.01592773 24.52587891 136.09619141 C24.14284197 152.69701206 15.70680005 168.36388475 4.49560547 180.34472656 C-11.12005125 195.06464772 -29.72190965 202.86176443 -51.32128906 202.68823242 C-66.14365231 202.21756411 -83.24764306 197.34323821 -94.54736328 187.27050781 C-94.54736328 186.61050781 -94.54736328 185.95050781 -94.54736328 185.27050781 C-95.22798828 185.10550781 -95.90861328 184.94050781 -96.60986328 184.77050781 C-107.37337083 179.27424864 -115.80459342 163.54453022 -119.48486328 152.44238281 C-121.76730965 144.40992733 -122.69691833 136.6690546 -122.70849609 128.34448242 C-122.71594345 127.04531891 -122.71594345 127.04531891 -122.72354126 125.71990967 C-122.73807543 122.87088202 -122.74495153 120.02191011 -122.75048828 117.17285156 C-122.75331566 116.192782 -122.75614304 115.21271244 -122.75905609 114.2029438 C-122.77401615 109.01265318 -122.78326472 103.82239011 -122.78759766 98.63208008 C-122.7930663 93.30542133 -122.81706957 87.97902025 -122.84556961 82.65244198 C-122.86431772 78.52654822 -122.86940811 74.40071491 -122.87093353 70.27478218 C-122.87393503 68.31304077 -122.88187742 66.35129977 -122.89511871 64.38960075 C-123.04383642 40.65628748 -118.10017196 21.15419558 -101.54736328 3.27050781 C-72.95223754 -23.45208582 -29.93658203 -26.35000335 0 0 Z " fill="#EF800B" transform="translate(193.54736328125,117.7294921875)"/>
<path d="M0 0 C2.33110069 0.08547207 4.66250665 0.1630037 6.99414062 0.23242188 C12.64870456 0.4178069 18.29163663 0.70043027 23.9375 1.0625 C22.14217891 4.94199716 19.83682945 7.33211294 16.75 10.3125 C12.83687629 14.13358029 9.09284622 18.02447072 5.5703125 22.2109375 C1.8899491 26.38436394 -2.2042066 30.19836177 -6.15234375 34.1171875 C-7.60512878 35.56259464 -9.05743005 37.00848592 -10.50952148 38.45458984 C-11.50048416 39.4405206 -12.49234208 40.4255524 -13.48510742 41.40966797 C-18.90744353 46.7861967 -24.1451634 52.21633315 -29.0625 58.0625 C-29.866875 58.701875 -30.67125 59.34125 -31.5 60 C-34.44954079 62.37402064 -36.71412412 65.03931842 -39.16796875 67.91015625 C-43.06182221 72.33389492 -47.34511017 76.38804492 -51.5625 80.5 C-54.48854893 83.49920015 -57.24437343 86.62561313 -60 89.78125 C-62.27317568 92.29552006 -64.65916073 94.67301854 -67.0625 97.0625 C-66.17966843 97.07058685 -65.29683685 97.07867371 -64.38725281 97.08700562 C-56.07343919 97.1648982 -47.75978869 97.25217265 -39.44618511 97.35002708 C-35.17192019 97.40000482 -30.89768017 97.44633465 -26.62329102 97.484375 C-22.49941718 97.52120926 -18.37575087 97.56756399 -14.25205421 97.62056351 C-12.67760668 97.63911738 -11.10311465 97.65422168 -9.52860069 97.66584396 C-7.32573502 97.68268966 -5.12334566 97.71171977 -2.9206543 97.74365234 C-1.66600876 97.75697601 -0.41136322 97.77029968 0.88130188 97.7840271 C3.9375 98.0625 3.9375 98.0625 6.9375 100.0625 C7.22951724 102.66365556 7.3337335 105.02341152 7.30078125 107.625 C7.30152901 108.74563843 7.30152901 108.74563843 7.30229187 109.88891602 C7.29995023 111.46926532 7.29021631 113.04961827 7.27368164 114.62988281 C7.25009178 117.05307251 7.2531191 119.47516222 7.25976562 121.8984375 C7.25418886 123.43229825 7.24707899 124.96615435 7.23828125 126.5 C7.23919266 127.22711182 7.24010406 127.95422363 7.24104309 128.70336914 C7.16852983 133.83147017 7.16852983 133.83147017 4.9375 136.0625 C2.85414124 136.31418228 2.85414124 136.31418228 0.23071289 136.31646729 C-0.7620163 136.32210693 -1.75474548 136.32774658 -2.77755737 136.33355713 C-3.87061188 136.32950867 -4.96366638 136.32546021 -6.08984375 136.32128906 C-7.81184494 136.32654602 -7.81184494 136.32654602 -9.56863403 136.33190918 C-13.37915012 136.34074166 -17.18948189 136.33487191 -21 136.328125 C-23.63793982 136.32947121 -26.27587939 136.33141137 -28.91381836 136.33392334 C-34.44875094 136.33756456 -39.9836302 136.33275982 -45.51855469 136.32324219 C-51.92265185 136.3123573 -58.32662168 136.31588277 -64.73071575 136.326895 C-70.88487631 136.33705492 -77.0389803 136.33599181 -83.19314575 136.33013153 C-85.81511452 136.32879347 -88.43708652 136.33044818 -91.05905151 136.33509064 C-94.71784178 136.34014655 -98.37638451 136.33245863 -102.03515625 136.32128906 C-103.12821075 136.32533752 -104.22126526 136.32938599 -105.34744263 136.33355713 C-106.83653641 136.32509766 -106.83653641 136.32509766 -108.35571289 136.31646729 C-109.22144424 136.31571323 -110.0871756 136.31495918 -110.97914124 136.31418228 C-113.0625 136.0625 -113.0625 136.0625 -115.0625 134.0625 C-115.3240999 131.21531087 -115.46331042 128.46964612 -115.50390625 125.6171875 C-115.51767807 124.77334503 -115.53144989 123.92950256 -115.54563904 123.06008911 C-115.56894272 121.2696185 -115.58619199 119.47906054 -115.59790039 117.68847656 C-115.62470202 114.96774937 -115.69954036 112.25098853 -115.77539062 109.53125 C-115.99569778 94.93174551 -115.99569778 94.93174551 -111.765625 90.1015625 C-110.5602402 89.0542133 -109.32860557 88.03557222 -108.0625 87.0625 C-107.35480469 86.2271875 -106.64710938 85.391875 -105.91796875 84.53125 C-105.09232422 83.55671875 -105.09232422 83.55671875 -104.25 82.5625 C-103.68667969 81.8921875 -103.12335938 81.221875 -102.54296875 80.53125 C-101.0625 79.0625 -101.0625 79.0625 -99.0625 79.0625 C-98.86011719 78.53140625 -98.65773437 78.0003125 -98.44921875 77.453125 C-96.45792575 74.02024806 -93.71769201 71.55376673 -90.875 68.8125 C-86.04002725 64.06675778 -81.4381843 59.23861436 -77.0625 54.0625 C-72.64673829 48.89876232 -68.18764154 44.20107394 -63.00390625 39.80859375 C-59.70357799 36.84029046 -56.90548464 33.4620123 -54.0625 30.0625 C-53.02279541 28.83167324 -51.98121387 27.60242881 -50.9375 26.375 C-50.28394531 25.59576172 -50.28394531 25.59576172 -49.6171875 24.80078125 C-48.0625 23.0625 -48.0625 23.0625 -45.91430664 21.00048828 C-43.6568891 18.77178182 -41.72507646 16.39067013 -39.77172852 13.89282227 C-27.95433252 -0.43642611 -17.83580874 -1.14794369 0 0 Z " fill="#352A87" transform="translate(345.0625,174.9375)"/>
<path d="M0 0 C0.79385605 -0.00095673 1.5877121 -0.00191345 2.40562439 -0.00289917 C4.08430053 -0.00358001 5.7629793 -0.0017324 7.44165039 0.00244141 C10.02040472 0.00779809 12.59898543 0.00248958 15.17773438 -0.00390625 C16.80598997 -0.00324559 18.43424546 -0.00196468 20.0625 0 C20.83852066 -0.00202423 21.61454132 -0.00404846 22.41407776 -0.00613403 C27.84988792 0.01785667 27.84988792 0.01785667 28.96484375 1.1328125 C29.06857627 3.54407233 29.10846212 5.92761398 29.10668945 8.33959961 C29.11016388 9.09421478 29.11363831 9.84882996 29.11721802 10.62631226 C29.12459044 12.2719899 29.12992786 13.91767758 29.13350868 15.56336784 C29.14066529 18.17486003 29.15632962 20.78616333 29.17485046 23.39759827 C29.22732984 30.82534044 29.27521562 38.25298501 29.29077148 45.6809082 C29.30090387 50.2210227 29.3303707 54.76067061 29.37209129 59.30060005 C29.38434241 61.02556374 29.38953339 62.75059356 29.38729286 64.47559929 C29.37465695 77.39071326 30.47167841 87.39979014 39.671875 97.15234375 C48.49513351 104.77311388 58.58272007 105.94490816 69.78515625 105.38574219 C74.13281884 104.88124191 77.85948989 103.14921881 81.7421875 101.2265625 C83.96484375 100.1328125 83.96484375 100.1328125 85.96484375 100.1328125 C86.95484375 98.1528125 86.95484375 98.1528125 87.96484375 96.1328125 C88.62484375 96.1328125 89.28484375 96.1328125 89.96484375 96.1328125 C90.24328125 95.54371094 90.52171875 94.95460938 90.80859375 94.34765625 C91.88489802 92.28595178 93.09668391 90.56818985 94.46484375 88.6953125 C97.48001555 84.01292805 97.97922871 79.2475195 98.60546875 73.79296875 C98.96484375 71.1328125 98.96484375 71.1328125 99.96484375 70.1328125 C102.69208654 70.03181762 105.39346898 69.99310721 108.12109375 70 C108.93856079 69.99904327 109.75602783 69.99808655 110.5982666 69.99710083 C112.32999753 69.99641905 114.06173099 69.99827321 115.79345703 70.00244141 C118.45350857 70.00778971 121.11339125 70.00249638 123.7734375 69.99609375 C125.45182329 69.99675453 127.13020898 69.9980357 128.80859375 70 C129.60962524 69.99797577 130.41065674 69.99595154 131.23596191 69.99386597 C136.84989296 70.01786171 136.84989296 70.01786171 137.96484375 71.1328125 C138.26081609 86.3753879 134.22149247 101.82170286 124.96484375 114.1328125 C124.30484375 114.1328125 123.64484375 114.1328125 122.96484375 114.1328125 C122.77921875 114.8134375 122.59359375 115.4940625 122.40234375 116.1953125 C115.86672502 129.55070729 98.95895834 137.81042427 85.65234375 142.4453125 C70.48440023 147.45898421 53.87300946 146.2376228 38.96484375 141.1328125 C38.041875 140.83246094 37.11890625 140.53210938 36.16796875 140.22265625 C19.14266399 134.11575346 6.70118359 120.41211324 -2.03515625 105.1328125 C-2.47601563 104.40320313 -2.916875 103.67359375 -3.37109375 102.921875 C-9.07904084 92.75057078 -10.16803511 79.79709958 -10.14868164 68.33984375 C-10.14882767 67.60715775 -10.14897369 66.87447174 -10.14912415 66.11958313 C-10.14843448 63.72812813 -10.14068701 61.33675368 -10.1328125 58.9453125 C-10.13094495 57.2752283 -10.12952264 55.60514354 -10.12852478 53.93505859 C-10.12472613 49.56213846 -10.11491879 45.1892521 -10.1038208 40.81634521 C-10.09354936 36.34501604 -10.08901493 31.87368135 -10.08398438 27.40234375 C-10.07329389 18.64581792 -10.0562497 9.88931942 -10.03515625 1.1328125 C-6.87201472 -0.44875827 -3.47226082 -0.009081 0 0 Z " fill="#EF8310" transform="translate(386.03515625,174.8671875)"/>
<path d="M0 0 C0 12.54 0 25.08 0 38 C-4.29 38.66 -8.58 39.32 -13 40 C-19.98660695 42.44984919 -24.83275903 45.71944234 -30 51 C-30.4846875 51.47695312 -30.969375 51.95390625 -31.46875 52.4453125 C-36.48971257 58.29289696 -37.42586898 66.67457465 -39 74 C-44.56226726 75.74473496 -50.55496518 75.18595786 -56.32666016 75.18530273 C-58.49271191 75.18749263 -60.65825676 75.20567872 -62.82421875 75.22460938 C-64.20572743 75.22754309 -65.58723852 75.22952803 -66.96875 75.23046875 C-68.22107422 75.23457764 -69.47339844 75.23868652 -70.76367188 75.24291992 C-73.79498171 75.01538874 -75.46433448 74.60145208 -78 73 C-76.18247769 50.59293389 -68.44704434 31.63000256 -51.27734375 16.47998047 C-37.55289843 5.30776002 -17.93599342 -3.58719868 0 0 Z " fill="#EF8411" transform="translate(307,100)"/>
<path d="M0 0 C10.39628298 -0.2278142 18.19814306 0.60296655 28 4 C28.89589844 4.28875 29.79179687 4.5775 30.71484375 4.875 C37.70476179 7.3485255 43.23578768 11.40558371 49 16 C50.16015625 16.89332031 50.16015625 16.89332031 51.34375 17.8046875 C64.53757068 28.62919531 73.12690242 44.29629968 76 61 C76 65.29 76 69.58 76 74 C63.79 74 51.58 74 39 74 C37.68 68.72 36.36 63.44 35 58 C28.46007009 48.19010514 22.51143697 42.3753125 11 39 C8.26822075 38.5489136 5.62763353 38.26407295 2.86328125 38.140625 C1 38 1 38 0 37 C-0.08858646 34.26105915 -0.11523479 31.5474673 -0.09765625 28.80859375 C-0.0962413 27.98875504 -0.09482635 27.16891632 -0.09336853 26.32423401 C-0.08775289 23.69528618 -0.07519779 21.06642227 -0.0625 18.4375 C-0.05748701 16.65950643 -0.05292376 14.88151154 -0.04882812 13.10351562 C-0.03777839 8.73564455 -0.02050331 4.36783652 0 0 Z " fill="#392E89" transform="translate(447,100)"/>
<path d="M0 0 C0.86445236 0.00202423 1.72890472 0.00404846 2.61955261 0.00613403 C3.52517441 0.00438171 4.4307962 0.00262939 5.36386108 0.00082397 C8.37293892 -0.00359597 11.3819585 -0.00065605 14.39103699 0.00271606 C16.47229524 0.00204307 18.55355342 0.00107308 20.6348114 -0.00018311 C25.00294236 -0.00166027 29.37105292 0.00049508 33.73918152 0.00515747 C39.35193252 0.01085477 44.96463571 0.00757586 50.57738495 0.00158501 C54.87690087 -0.0020201 59.17640537 -0.00088225 63.47592163 0.0017128 C65.5460816 0.00238221 67.61624259 0.00155316 69.68640137 -0.00076675 C72.57430285 -0.00329245 75.46212576 0.00054614 78.35002136 0.00613403 C79.21447372 0.0041098 80.07892609 0.00208557 80.96957397 0 C86.87052462 0.02126619 86.87052462 0.02126619 87.98478699 1.13552856 C88.0726224 3.35408121 88.09173308 5.57541353 88.08244324 7.79568481 C88.08102829 8.46015121 88.07961334 9.12461761 88.07815552 9.80921936 C88.07254217 11.93886755 88.05998753 14.06841196 88.04728699 16.19802856 C88.0422737 17.63878226 88.0377105 19.07953759 88.03361511 20.52029419 C88.02256844 24.05873958 88.00529491 27.59712395 87.98478699 31.13552856 C84.69731402 32.77926505 81.04892689 32.27362357 77.43595886 32.2649231 C76.55130447 32.26667542 75.66665009 32.26842773 74.75518799 32.27023315 C71.82128456 32.2746463 68.88744106 32.27171555 65.95353699 32.26834106 C63.9209441 32.26901426 61.88835128 32.26998441 59.85575867 32.27124023 C55.59195694 32.27271648 51.32817613 32.27056499 47.06437683 32.26589966 C41.58963608 32.26020242 36.11494434 32.26348181 30.64020538 32.26947212 C26.44187549 32.2730797 22.24355729 32.27193824 18.04522705 32.26934433 C16.02613316 32.26867561 14.00703822 32.26950158 11.98794556 32.27182388 C9.16980667 32.27435361 6.351748 32.27050524 3.53361511 32.2649231 C2.69303055 32.26694733 1.85244598 32.26897156 0.98638916 32.27105713 C-4.78668509 32.24979252 -4.78668509 32.24979252 -7.01521301 31.13552856 C-7.03986923 26.88138234 -7.058052 22.62727359 -7.07014465 18.37307739 C-7.07518402 16.92482784 -7.08201554 15.4765834 -7.09065247 14.02835083 C-7.10273548 11.95078268 -7.10844513 9.87328159 -7.11286926 7.79568481 C-7.11810608 6.54408569 -7.1233429 5.29248657 -7.1287384 4.00296021 C-6.92517806 -1.13858011 -4.5551219 0.01641602 0 0 Z " fill="#3A308A" transform="translate(326.0152130126953,99.86447143554688)"/>
<path d="M0 0 C0.33 0 0.66 0 1 0 C1.14906602 3.65211738 1.13014223 6.59475397 0.00637817 10.0940094 C-1.40918865 14.83938737 -1.26400199 19.51720882 -1.22705078 24.43334961 C-1.22734283 25.4584967 -1.22763489 26.4836438 -1.22793579 27.53985596 C-1.22654824 30.91077288 -1.21101396 34.28146569 -1.1953125 37.65234375 C-1.19158033 39.99646382 -1.18873432 42.34058545 -1.18673706 44.68470764 C-1.17911668 50.8414036 -1.15948182 56.99800455 -1.1373291 63.15466309 C-1.11683634 69.44228836 -1.10772801 75.72992905 -1.09765625 82.01757812 C-1.07623448 94.34509373 -1.04211774 106.67253895 -1 119 C-4.34798227 112.73104868 -4.15147689 106.01671439 -4.16113281 99.07397461 C-4.16858017 97.7748111 -4.16858017 97.7748111 -4.17617798 96.44940186 C-4.19071214 93.60037421 -4.19758825 90.7514023 -4.203125 87.90234375 C-4.20595238 86.92227419 -4.20877975 85.94220463 -4.21169281 84.93243599 C-4.22665287 79.74214537 -4.23590144 74.5518823 -4.24023438 69.36157227 C-4.24570302 64.03491352 -4.26970629 58.70851244 -4.29820633 53.38193417 C-4.31695444 49.25604041 -4.32204483 45.1302071 -4.32357025 41.00427437 C-4.32657175 39.04253296 -4.33451414 37.08079196 -4.34775543 35.11909294 C-4.4244237 22.88388491 -3.90955557 11.72866672 0 0 Z " fill="#F1C389" transform="translate(75,147)"/>
<path d="M0 0 C1.56047445 0.00015913 3.12095416 0.00585397 4.68139648 0.01586914 C5.91115456 0.01799156 5.91115456 0.01799156 7.16575623 0.02015686 C9.79470406 0.0257725 12.42356797 0.0383276 15.05249023 0.05102539 C16.8304838 0.05603838 18.60847869 0.06060163 20.38647461 0.06469727 C24.75434569 0.07574701 29.12215371 0.09302208 33.48999023 0.11352539 C33.48999023 4.07352539 33.48999023 8.03352539 33.48999023 12.11352539 C33.15999023 12.11352539 32.82999023 12.11352539 32.48999023 12.11352539 C32.48999023 8.81352539 32.48999023 5.51352539 32.48999023 2.11352539 C20.93999023 2.11352539 9.38999023 2.11352539 -2.51000977 2.11352539 C-2.84000977 4.42352539 -3.17000977 6.73352539 -3.51000977 9.11352539 C-3.84000977 9.11352539 -4.17000977 9.11352539 -4.51000977 9.11352539 C-4.60766602 2.96118164 -4.60766602 2.96118164 -4.51000977 1.11352539 C-3.51000977 0.11352539 -3.51000977 0.11352539 0 0 Z " fill="#F1C289" transform="translate(184.510009765625,244.886474609375)"/>
<path d="M0 0 C0.66 0.33 1.32 0.66 2 1 C0.09042286 3.13176064 -1.82708763 5.2553245 -3.75 7.375 C-4.55824219 8.27992187 -4.55824219 8.27992187 -5.3828125 9.203125 C-5.91132812 9.78320312 -6.43984375 10.36328125 -6.984375 10.9609375 C-7.70705566 11.76217041 -7.70705566 11.76217041 -8.44433594 12.57958984 C-10.16979726 14.1550346 -11.87547258 15.04997548 -14 16 C-12.55284248 10.98990404 -9.67912706 8.49294219 -5.875 5.1875 C-5.31167969 4.68541016 -4.74835938 4.18332031 -4.16796875 3.66601562 C-2.785703 2.43603339 -1.39379268 1.21690462 0 0 Z " fill="#F3BF83" transform="translate(101,113)"/>
<path d="M0 0 C0.66 0.33 1.32 0.66 2 1 C-2.93464157 6.76267666 -7.58256043 11.90376198 -14 16 C-12.51261554 12.63421763 -10.57625007 10.17087508 -8.125 7.4375 C-7.44695312 6.67308594 -6.76890625 5.90867187 -6.0703125 5.12109375 C-4.15907769 3.16297959 -2.23535632 1.56875903 0 0 Z " fill="#F4C58D" transform="translate(258,115)"/>
<path d="M0 0 C-2.53054337 2.53054337 -3.43548882 2.25683229 -6.9375 2.265625 C-7.91460937 2.26820313 -8.89171875 2.27078125 -9.8984375 2.2734375 C-10.92195313 2.26570313 -11.94546875 2.25796875 -13 2.25 C-14.02351563 2.25773437 -15.04703125 2.26546875 -16.1015625 2.2734375 C-17.07867187 2.27085937 -18.05578125 2.26828125 -19.0625 2.265625 C-19.96097656 2.26336914 -20.85945313 2.26111328 -21.78515625 2.25878906 C-24 2 -24 2 -26 0 C-25.11477661 0.00785522 -25.11477661 0.00785522 -24.21166992 0.01586914 C-21.53695745 0.03666047 -18.86226199 0.04966701 -16.1875 0.0625 C-14.7943457 0.07506836 -14.7943457 0.07506836 -13.37304688 0.08789062 C-12.48037109 0.09111328 -11.58769531 0.09433594 -10.66796875 0.09765625 C-9.84578857 0.10289307 -9.0236084 0.10812988 -8.17651367 0.11352539 C-0.81183317 -0.27061106 -0.81183317 -0.27061106 0 0 Z " fill="#F9E3C2" transform="translate(464,280)"/>
<path d="M0 0 C0.33 0 0.66 0 1 0 C1.26122419 6.3999927 0.5991308 11.6013038 -3 17 C-2.22095672 5.47835991 -2.22095672 5.47835991 0 0 Z " fill="#F6DAB3" transform="translate(75,147)"/>
<path d="M0 0 C-1.28519565 2.86697492 -2.57129254 4.97607712 -5 7 C-5.66 7 -6.32 7 -7 7 C-3.86206897 0 -3.86206897 0 0 0 Z " fill="#847DB3" transform="translate(246,254)"/>
<path d="M0 0 C0.33 0.66 0.66 1.32 1 2 C-0.61594832 4.04119788 -2.2856382 6.04072937 -4 8 C-4.66 8 -5.32 8 -6 8 C-4.55746343 4.63408134 -2.66735273 2.48952921 0 0 Z " fill="#8983B6" transform="translate(268,229)"/>
</svg>
